<?xml version="1.0" encoding="UTF-8" standalone="no"?>
<svg width="47px" height="46px" viewBox="0 0 47 46" version="1.1" xmlns="http://www.w3.org/2000/svg" xmlns:xlink="http://www.w3.org/1999/xlink">
    <!-- Generator: Sketch 39.1 (31720) - http://www.bohemiancoding.com/sketch -->
    <title>noun_182434_cc</title>
    <desc>Created with Sketch.</desc>
    <defs></defs>
    <g id="Page-1" stroke="none" stroke-width="1" fill="none" fill-rule="evenodd">
        <g id="noun_182434_cc" fill="#000000">
            <g id="Group">
                <path d="M23.4,0 C10.7,0 0.4,10.3 0.4,23 C0.4,35.7 10.7,46 23.4,46 C36.1,46 46.4,35.7 46.4,23 C46.4,10.3 36.1,0 23.4,0 L23.4,0 Z M23.4,45 C11.3,45 1.4,35.1 1.4,23 C1.4,10.9 11.3,1 23.4,1 C35.5,1 45.4,10.9 45.4,23 C45.4,35.1 35.6,45 23.4,45 L23.4,45 Z" id="Shape"></path>
                <path d="M8,9.6 L8.5,9.7 L8.6,9.7 C8.8,9.7 9,9.5 9.1,9.3 C9.2,9 9,8.8 8.7,8.7 L8.2,8.6 C7.9,8.5 7.7,8.7 7.6,9 C7.6,9.2 7.7,9.5 8,9.6 L8,9.6 Z" id="Shape"></path>
                <path d="M19.8,11.5 C20.1,11.5 20.5,11.5 20.8,11.6 L20.8,11.6 C21.1,11.6 21.3,11.4 21.3,11.1 C21.3,10.8 21.1,10.6 20.8,10.6 C20.5,10.6 20.1,10.6 19.8,10.5 C19.5,10.5 19.3,10.7 19.3,11 C19.3,11.2 19.5,11.4 19.8,11.5 L19.8,11.5 Z" id="Shape"></path>
                <path d="M16.7,11.2 C17,11.2 17.4,11.3 17.7,11.3 L17.8,11.3 C18.1,11.3 18.3,11.1 18.3,10.9 C18.3,10.6 18.1,10.4 17.9,10.4 C17.6,10.4 17.2,10.3 16.9,10.3 C16.6,10.3 16.4,10.5 16.3,10.7 C16.2,10.9 16.4,11.1 16.7,11.2 L16.7,11.2 Z" id="Shape"></path>
                <path d="M35.3,10.5 L35.4,10.5 C35.7,10.4 36.1,10.4 36.4,10.3 C36.7,10.2 36.8,10 36.8,9.7 C36.7,9.4 36.5,9.3 36.2,9.3 C35.9,9.4 35.5,9.4 35.2,9.5 C34.9,9.6 34.8,9.8 34.8,10.1 C34.9,10.4 35.1,10.5 35.3,10.5 L35.3,10.5 Z" id="Shape"></path>
                <path d="M29.2,11.4 L29.2,11.4 C29.6,11.4 29.9,11.3 30.3,11.3 C30.6,11.3 30.8,11 30.7,10.8 C30.6,10.6 30.4,10.3 30.2,10.4 C29.9,10.4 29.5,10.5 29.2,10.5 C28.9,10.5 28.7,10.8 28.7,11 C28.7,11.2 28.9,11.4 29.2,11.4 L29.2,11.4 Z" id="Shape"></path>
                <path d="M32.3,11.1 L32.3,11.1 C32.7,11 33.1,11 33.4,10.9 C33.7,10.9 33.9,10.6 33.8,10.3 C33.8,10 33.5,9.8 33.2,9.9 C32.9,10 32.5,10 32.2,10.1 C31.9,10.1 31.7,10.4 31.8,10.7 C31.8,10.9 32,11.1 32.3,11.1 L32.3,11.1 Z" id="Shape"></path>
                <path d="M10.5,10.2 C10.8,10.3 11.2,10.3 11.5,10.4 L11.6,10.4 C11.8,10.4 12,10.2 12.1,10 C12.2,9.7 12,9.5 11.7,9.4 C11.4,9.3 11,9.3 10.7,9.2 C10.4,9.1 10.2,9.3 10.1,9.6 C10.1,9.8 10.2,10.1 10.5,10.2 L10.5,10.2 Z" id="Shape"></path>
                <path d="M26.1,11.6 L26.1,11.6 L27.2,11.6 C27.5,11.6 27.7,11.4 27.7,11.1 C27.7,10.8 27.4,10.6 27.2,10.6 L26.2,10.6 C25.9,10.6 25.7,10.8 25.7,11.1 C25.6,11.4 25.8,11.6 26.1,11.6 L26.1,11.6 Z" id="Shape"></path>
                <path d="M23,11.6 L24,11.6 L24,11.6 C24.3,11.6 24.5,11.4 24.5,11.1 C24.5,10.8 24.3,10.6 24,10.6 L23,10.6 C22.7,10.6 22.5,10.8 22.5,11.1 C22.5,11.4 22.7,11.6 23,11.6 L23,11.6 Z" id="Shape"></path>
                <path d="M13.6,10.7 C13.9,10.8 14.3,10.8 14.6,10.9 L14.7,10.9 C14.9,10.9 15.2,10.7 15.2,10.5 C15.2,10.2 15.1,10 14.8,9.9 C14.5,9.8 14.1,9.8 13.8,9.7 C13.5,9.6 13.3,9.8 13.2,10.1 C13.1,10.4 13.3,10.7 13.6,10.7 L13.6,10.7 Z" id="Shape"></path>
                <path d="M38.4,9.8 L38.5,9.8 L39,9.7 C39.3,9.6 39.4,9.3 39.3,9.1 C39.2,8.8 38.9,8.7 38.7,8.8 L38.2,8.9 C37.9,9 37.8,9.2 37.8,9.5 C37.9,9.7 38.1,9.8 38.4,9.8 L38.4,9.8 Z" id="Shape"></path>
                <path d="M38.7,11.3 C38.8,11.5 39,11.7 39.2,11.7 L39.3,11.7 L39.8,11.6 L39.7,11 L39.5,10.5 L39.1,10.6 C38.8,10.7 38.6,11 38.7,11.3 L38.7,11.3 Z" id="Shape"></path>
                <path d="M34.3,11.8 C34,11.9 33.6,11.9 33.3,12 C33,12 32.8,12.3 32.9,12.6 C32.9,12.8 33.2,13 33.4,13 L33.5,13 C33.8,12.9 34.2,12.9 34.5,12.8 C34.8,12.8 35,12.5 34.9,12.2 C34.8,11.9 34.5,11.7 34.3,11.8 L34.3,11.8 Z" id="Shape"></path>
                <path d="M37.2,11.2 C36.9,11.3 36.6,11.3 36.2,11.4 C35.9,11.5 35.8,11.7 35.8,12 C35.9,12.2 36.1,12.4 36.3,12.4 L36.4,12.4 C36.7,12.3 37.1,12.3 37.4,12.2 C37.7,12.1 37.8,11.9 37.8,11.6 C37.7,11.3 37.4,11.1 37.2,11.2 L37.2,11.2 Z" id="Shape"></path>
                <path d="M29.9,12.8 C29.9,13.1 30.1,13.3 30.4,13.3 L30.5,13.3 C30.8,13.3 31.2,13.2 31.5,13.2 C31.8,13.2 32,12.9 31.9,12.6 C31.9,12.3 31.6,12.1 31.3,12.2 C31,12.2 30.6,12.3 30.3,12.3 C30.1,12.3 29.9,12.6 29.9,12.8 L29.9,12.8 Z" id="Shape"></path>
                <path d="M9.5,12 C9.8,12.1 10.1,12.1 10.5,12.2 L10.6,12.2 C10.8,12.2 11,12 11.1,11.8 C11.2,11.5 11,11.3 10.7,11.2 C10.4,11.1 10,11.1 9.7,11 C9.4,10.9 9.2,11.1 9.1,11.4 C9.1,11.7 9.2,11.9 9.5,12 L9.5,12 Z" id="Shape"></path>
                <path d="M20.9,13 C20.9,13.3 21.1,13.5 21.4,13.5 L22.4,13.5 L22.4,13.5 C22.7,13.5 22.9,13.3 22.9,13 C22.9,12.7 22.7,12.5 22.4,12.5 L21.4,12.5 C21.2,12.5 21,12.8 20.9,13 L20.9,13 Z" id="Shape"></path>
                <path d="M23.9,13.1 C23.9,13.4 24.1,13.6 24.4,13.6 L24.4,13.6 L25.4,13.6 C25.7,13.6 25.9,13.4 25.9,13.1 C25.9,12.8 25.7,12.6 25.4,12.6 L24.4,12.6 C24.2,12.6 23.9,12.8 23.9,13.1 L23.9,13.1 Z" id="Shape"></path>
                <path d="M26.9,13.1 C26.9,13.4 27.1,13.6 27.4,13.6 L27.4,13.6 C27.7,13.6 28.1,13.6 28.4,13.5 C28.7,13.5 28.9,13.2 28.9,13 C28.9,12.8 28.7,12.5 28.4,12.5 C28.1,12.5 27.7,12.5 27.4,12.6 C27.1,12.5 26.9,12.8 26.9,13.1 L26.9,13.1 Z" id="Shape"></path>
                <path d="M15,12.5 C15,12.8 15.2,13 15.4,13.1 C15.7,13.1 16.1,13.2 16.4,13.2 L16.5,13.2 C16.8,13.2 17,13 17,12.8 C17,12.5 16.8,12.3 16.6,12.2 C16.3,12.2 15.9,12.1 15.6,12.1 C15.3,12 15,12.2 15,12.5 L15,12.5 Z" id="Shape"></path>
                <path d="M18,12.8 C18,13.1 18.2,13.3 18.5,13.3 C18.8,13.3 19.2,13.4 19.5,13.4 L19.5,13.4 C19.8,13.4 20,13.2 20,12.9 C20,12.6 19.8,12.4 19.5,12.4 C19.2,12.4 18.8,12.4 18.5,12.3 C18.2,12.3 18,12.5 18,12.8 L18,12.8 Z" id="Shape"></path>
                <path d="M12.5,12.6 C12.8,12.7 13.2,12.7 13.5,12.8 L13.6,12.8 C13.8,12.8 14.1,12.6 14.1,12.4 C14.1,12.1 14,11.9 13.7,11.8 C13.4,11.7 13,11.7 12.7,11.6 C12.4,11.5 12.2,11.7 12.1,12 C12,12.3 12.2,12.5 12.5,12.6 L12.5,12.6 Z" id="Shape"></path>
                <path d="M7.1,11.4 L7.6,11.5 L7.7,11.5 C7.9,11.5 8.1,11.3 8.2,11.1 C8.3,10.8 8.1,10.6 7.8,10.5 L7.3,10.4 C7,10.3 6.8,10.5 6.7,10.8 C6.6,11.1 6.8,11.3 7.1,11.4 L7.1,11.4 Z" id="Shape"></path>
                <path d="M8.2,34.8 C8.1,34.5 7.9,34.4 7.6,34.4 L7.1,34.5 C6.8,34.6 6.7,34.8 6.7,35.1 C6.8,35.3 7,35.5 7.2,35.5 L7.3,35.5 L7.8,35.4 C8.1,35.4 8.2,35.1 8.2,34.8 L8.2,34.8 Z" id="Shape"></path>
                <path d="M22.9,32.9 C22.9,32.6 22.6,32.4 22.4,32.4 L21.4,32.4 C21.1,32.4 20.9,32.6 20.9,32.9 C20.9,33.2 21.1,33.4 21.4,33.4 L21.4,33.4 L22.4,33.4 C22.7,33.4 22.9,33.2 22.9,32.9 L22.9,32.9 Z" id="Shape"></path>
                <path d="M17,33.3 C17,33 16.7,32.8 16.4,32.9 C16.1,32.9 15.7,33 15.4,33 C15.1,33 14.9,33.3 15,33.6 C15,33.9 15.2,34 15.5,34 L15.6,34 C15.9,34 16.2,33.9 16.6,33.9 C16.8,33.8 17,33.6 17,33.3 L17,33.3 Z" id="Shape"></path>
                <path d="M25.9,32.9 C25.9,32.6 25.7,32.4 25.4,32.4 L24.4,32.4 L24.4,32.4 C24.1,32.4 23.9,32.6 23.9,32.9 C23.9,33.2 24.1,33.4 24.4,33.4 L25.4,33.4 L25.4,33.4 C25.7,33.4 25.9,33.2 25.9,32.9 L25.9,32.9 Z" id="Shape"></path>
                <path d="M28.9,33.1 C28.9,32.8 28.7,32.6 28.4,32.6 C28.1,32.6 27.7,32.6 27.4,32.5 C27.1,32.5 26.9,32.7 26.9,33 C26.9,33.3 27.1,33.5 27.4,33.5 C27.7,33.5 28.1,33.5 28.4,33.6 L28.4,33.6 C28.7,33.5 28.9,33.3 28.9,33.1 L28.9,33.1 Z" id="Shape"></path>
                <path d="M19.9,33 C19.9,32.7 19.6,32.5 19.4,32.5 C19.1,32.5 18.7,32.6 18.4,32.6 C18.1,32.6 17.9,32.9 17.9,33.1 C17.9,33.4 18.1,33.6 18.4,33.6 L18.4,33.6 C18.7,33.6 19.1,33.5 19.4,33.5 C19.8,33.5 20,33.3 19.9,33 L19.9,33 Z" id="Shape"></path>
                <path d="M11.1,34.2 C11,33.9 10.8,33.8 10.5,33.8 C10.2,33.9 9.8,33.9 9.5,34 C9.2,34.1 9.1,34.3 9.1,34.6 C9.2,34.8 9.4,35 9.6,35 L9.7,35 C10,34.9 10.3,34.9 10.7,34.8 C11,34.7 11.1,34.5 11.1,34.2 L11.1,34.2 Z" id="Shape"></path>
                <path d="M37.4,33.9 C37.1,33.8 36.7,33.7 36.4,33.7 C36.1,33.6 35.9,33.8 35.8,34.1 C35.7,34.4 35.9,34.6 36.2,34.7 C36.5,34.8 36.8,34.8 37.2,34.9 L37.3,34.9 C37.5,34.9 37.7,34.7 37.8,34.5 C37.8,34.2 37.6,33.9 37.4,33.9 L37.4,33.9 Z" id="Shape"></path>
                <path d="M14,33.7 C14,33.4 13.7,33.2 13.4,33.3 C13.1,33.4 12.7,33.4 12.4,33.5 C12.1,33.5 11.9,33.8 12,34.1 C12,34.3 12.3,34.5 12.5,34.5 L12.6,34.5 C12.9,34.4 13.2,34.4 13.6,34.3 C13.9,34.2 14.1,33.9 14,33.7 L14,33.7 Z" id="Shape"></path>
                <path d="M34.4,33.3 C34.1,33.2 33.7,33.2 33.4,33.1 C33.1,33.1 32.9,33.2 32.8,33.5 C32.7,33.8 32.9,34 33.2,34.1 C33.5,34.2 33.8,34.2 34.2,34.3 L34.3,34.3 C34.5,34.3 34.7,34.1 34.8,33.9 C34.9,33.6 34.7,33.3 34.4,33.3 L34.4,33.3 Z" id="Shape"></path>
                <path d="M31.4,32.8 C31.1,32.8 30.7,32.7 30.4,32.7 C30.1,32.7 29.9,32.9 29.9,33.1 C29.9,33.3 30.1,33.6 30.3,33.6 C30.6,33.6 31,33.7 31.3,33.7 L31.4,33.7 C31.6,33.7 31.9,33.5 31.9,33.3 C31.9,33.1 31.7,32.8 31.4,32.8 L31.4,32.8 Z" id="Shape"></path>
                <path d="M39.8,34.5 L39.3,34.4 C39,34.3 38.8,34.5 38.7,34.7 C38.6,35 38.8,35.2 39,35.3 L39.5,35.4 L39.6,35.4 C39.8,35.4 40,35.3 40.1,35 C40.2,34.9 40.1,34.6 39.8,34.5 L39.8,34.5 Z" id="Shape"></path>
                <path d="M39,36.3 L38.5,36.2 C38.2,36.1 38,36.3 37.9,36.6 C37.8,36.9 38,37.1 38.3,37.2 L38.8,37.3 L38.9,37.3 C39.1,37.3 39.3,37.2 39.4,36.9 C39.4,36.7 39.3,36.4 39,36.3 L39,36.3 Z" id="Shape"></path>
                <path d="M14.6,35.1 C14.2,35.2 13.9,35.2 13.6,35.3 C13.3,35.3 13.1,35.6 13.2,35.9 C13.2,36.1 13.5,36.3 13.7,36.3 L13.8,36.3 C14.1,36.2 14.5,36.2 14.8,36.1 C15.1,36.1 15.3,35.8 15.2,35.5 C15.2,35.2 14.9,35.1 14.6,35.1 L14.6,35.1 Z" id="Shape"></path>
                <path d="M11.5,35.6 C11.1,35.7 10.8,35.7 10.5,35.8 C10.2,35.9 10.1,36.1 10.1,36.4 C10.1,36.6 10.4,36.8 10.6,36.8 L10.7,36.8 C11,36.7 11.4,36.7 11.7,36.6 C12,36.5 12.1,36.3 12.1,36 C12.1,35.7 11.8,35.6 11.5,35.6 L11.5,35.6 Z" id="Shape"></path>
                <path d="M17.7,34.7 C17.3,34.7 17,34.8 16.7,34.8 C16.4,34.8 16.2,35.1 16.3,35.4 C16.3,35.7 16.5,35.8 16.8,35.8 L16.9,35.8 C17.2,35.8 17.6,35.7 17.9,35.7 C18.2,35.7 18.4,35.4 18.3,35.2 C18.3,34.9 18,34.7 17.7,34.7 L17.7,34.7 Z" id="Shape"></path>
                <path d="M20.9,34.5 C20.5,34.5 20.2,34.5 19.9,34.6 C19.6,34.6 19.4,34.9 19.4,35.1 C19.4,35.4 19.6,35.6 19.9,35.6 L19.9,35.6 C20.2,35.6 20.6,35.6 20.9,35.5 C21.2,35.5 21.4,35.3 21.4,35 C21.4,34.7 21.1,34.5 20.9,34.5 L20.9,34.5 Z" id="Shape"></path>
                <path d="M24,34.4 L24,34.4 L23,34.4 C22.7,34.4 22.5,34.6 22.5,34.9 C22.5,35.2 22.7,35.4 23,35.4 L23,35.4 L24,35.4 C24.3,35.4 24.5,35.2 24.5,34.9 C24.5,34.6 24.3,34.4 24,34.4 L24,34.4 Z" id="Shape"></path>
                <path d="M33.4,35.1 C33.1,35 32.7,35 32.4,34.9 C32.1,34.9 31.9,35.1 31.8,35.3 C31.8,35.6 32,35.8 32.2,35.9 C32.5,35.9 32.9,36 33.2,36.1 L33.3,36.1 C33.5,36.1 33.8,35.9 33.8,35.7 C33.8,35.4 33.7,35.1 33.4,35.1 L33.4,35.1 Z" id="Shape"></path>
                <path d="M36.5,35.7 C36.2,35.6 35.8,35.5 35.5,35.5 C35.2,35.4 35,35.6 34.9,35.9 C34.8,36.2 35,36.4 35.3,36.5 C35.6,36.6 36,36.6 36.3,36.7 L36.4,36.7 C36.6,36.7 36.8,36.5 36.9,36.3 C36.9,36 36.7,35.8 36.5,35.7 L36.5,35.7 Z" id="Shape"></path>
                <path d="M30.3,34.7 C30,34.7 29.6,34.6 29.3,34.6 C29,34.6 28.8,34.8 28.8,35.1 C28.8,35.4 29,35.6 29.3,35.6 C29.6,35.6 30,35.7 30.3,35.7 L30.4,35.7 C30.7,35.7 30.9,35.5 30.9,35.3 C30.7,35 30.5,34.7 30.3,34.7 L30.3,34.7 Z" id="Shape"></path>
                <path d="M27.1,34.5 L26.1,34.5 C25.8,34.5 25.6,34.7 25.6,35 C25.6,35.3 25.8,35.5 26.1,35.5 L27.1,35.5 L27.1,35.5 C27.4,35.5 27.6,35.3 27.6,35 C27.6,34.7 27.4,34.5 27.1,34.5 L27.1,34.5 Z" id="Shape"></path>
                <path d="M8.5,36.3 L8,36.4 C7.7,36.5 7.6,36.7 7.6,37 C7.7,37.2 7.9,37.4 8.1,37.4 L8.2,37.4 L8.7,37.3 C9,37.2 9.1,37 9.1,36.7 C9,36.4 8.7,36.2 8.5,36.3 L8.5,36.3 Z" id="Shape"></path>
            </g>
        </g>
    </g>
</svg>