<?xml version="1.0" encoding="UTF-8" standalone="no"?>
<svg width="80px" height="73px" viewBox="0 0 80 73" version="1.1" xmlns="http://www.w3.org/2000/svg" xmlns:xlink="http://www.w3.org/1999/xlink">
    <!-- Generator: Sketch 39.1 (31720) - http://www.bohemiancoding.com/sketch -->
    <title>group</title>
    <desc>Created with Sketch.</desc>
    <defs></defs>
    <g id="Page-1" stroke="none" stroke-width="1" fill="none" fill-rule="evenodd">
        <g id="noun_182394_cc" fill="#000000">
            <g id="Group">
                <path d="M72.8,27.9 C69.2,27.9 66.3,30.8 66.3,34.4 L66.3,34.4 L54,35.9 C53.7,32.2 52,28.9 49.5,26.4 L61,12.8 C62,13.4 63.1,13.7 64.3,13.7 C67.9,13.7 70.8,10.8 70.8,7.2 C70.8,3.6 67.9,0.7 64.3,0.7 C60.7,0.7 57.8,3.6 57.8,7.2 C57.8,9.2 58.7,11 60.2,12.2 L48.7,25.8 C46.1,23.6 42.7,22.2 39,22.2 C35.8,22.2 32.7,23.2 30.3,25 L23.6,17 C24.6,15.9 25.2,14.4 25.2,12.7 C25.2,9.1 22.3,6.2 18.7,6.2 C15.1,6.2 12.2,9.1 12.2,12.7 C12.2,16.3 15.1,19.2 18.7,19.2 C20.3,19.2 21.7,18.6 22.8,17.7 L29.4,25.6 C26.1,28.4 23.9,32.5 23.9,37.2 C23.9,38 24,38.8 24.1,39.5 L13.1,40.9 C13,37.6 10.2,35 6.8,35 C3.2,35 0.3,37.9 0.3,41.5 C0.3,45.1 3.2,48 6.8,48 C10.2,48 13,45.3 13.3,41.9 L24.5,40.4 C25.3,43.9 27.3,47 30.1,49.1 L21.2,61.1 C20.1,60.2 18.6,59.6 17.1,59.6 C13.5,59.6 10.6,62.5 10.6,66.1 C10.6,69.7 13.5,72.6 17.1,72.6 C20.7,72.6 23.6,69.7 23.6,66.1 C23.6,64.5 23,63 22,61.8 L31,49.7 C33.4,51.2 36.2,52.1 39.2,52.1 C43.9,52.1 48.1,49.9 50.8,46.6 L62.5,55.6 C61.5,56.7 60.9,58.3 60.9,59.9 C60.9,63.5 63.8,66.4 67.4,66.4 C71,66.4 73.9,63.5 73.9,59.9 C73.9,56.3 71,53.4 67.4,53.4 C65.8,53.4 64.4,54 63.3,54.9 L51.5,45.8 C53.2,43.4 54.3,40.4 54.3,37.1 L54.3,36.8 L66.7,35.3 C67.2,38.4 69.9,40.8 73.1,40.8 C76.7,40.8 79.6,37.9 79.6,34.3 C79.6,30.7 76.4,27.9 72.8,27.9 L72.8,27.9 Z M58.8,7.2 C58.8,4.2 61.3,1.7 64.3,1.7 C67.3,1.7 69.8,4.2 69.8,7.2 C69.8,10.2 67.3,12.7 64.3,12.7 C61.3,12.7 58.8,10.2 58.8,7.2 L58.8,7.2 Z M13.3,12.7 C13.3,9.7 15.8,7.2 18.8,7.2 C21.8,7.2 24.3,9.7 24.3,12.7 C24.3,15.7 21.8,18.2 18.8,18.2 C15.8,18.2 13.3,15.7 13.3,12.7 L13.3,12.7 Z M6.8,47 C3.8,47 1.3,44.5 1.3,41.5 C1.3,38.5 3.8,36 6.8,36 C9.8,36 12.3,38.5 12.3,41.5 C12.3,44.5 9.8,47 6.8,47 L6.8,47 Z M17,71.7 C14,71.7 11.5,69.2 11.5,66.2 C11.5,63.2 14,60.7 17,60.7 C20,60.7 22.5,63.2 22.5,66.2 C22.5,69.2 20,71.7 17,71.7 L17,71.7 Z M72.8,60 C72.8,63 70.3,65.5 67.3,65.5 C64.3,65.5 61.8,63 61.8,60 C61.8,57 64.3,54.5 67.3,54.5 C70.3,54.5 72.8,56.9 72.8,60 L72.8,60 Z M39.1,51.2 C31.4,51.2 25.1,44.9 25.1,37.2 C25.1,29.5 31.4,23.2 39.1,23.2 C46.8,23.2 53.1,29.5 53.1,37.2 C53.1,44.9 46.8,51.2 39.1,51.2 L39.1,51.2 Z M72.8,39.9 C69.8,39.9 67.3,37.4 67.3,34.4 C67.3,31.4 69.8,28.9 72.8,28.9 C75.8,28.9 78.3,31.4 78.3,34.4 C78.3,37.4 75.9,39.9 72.8,39.9 L72.8,39.9 Z" id="Shape"></path>
            </g>
        </g>
    </g>
</svg>