<?xml version="1.0" encoding="UTF-8" standalone="no"?>
<svg width="62px" height="61px" viewBox="0 0 62 61" version="1.1" xmlns="http://www.w3.org/2000/svg" xmlns:xlink="http://www.w3.org/1999/xlink">
    <!-- Generator: Sketch 39.1 (31720) - http://www.bohemiancoding.com/sketch -->
    <title>noun_182439_cc</title>
    <desc>Created with Sketch.</desc>
    <defs></defs>
    <g id="Page-1" stroke="none" stroke-width="1" fill="none" fill-rule="evenodd">
        <g id="noun_182439_cc" fill="#000000">
            <g id="Group">
                <path d="M48.9,4.6 C48.7,4.5 48.4,4.6 48.2,4.9 C48.1,5.2 48.2,5.4 48.5,5.6 C54.4,8.2 57.9,14.1 57.9,21.3 C57.9,21.6 58.1,21.8 58.4,21.8 C58.7,21.8 58.9,21.6 58.9,21.3 C58.8,13.6 55.1,7.4 48.9,4.6 L48.9,4.6 Z" id="Shape"></path>
                <path d="M50.1,1.9 C43.6,-1 36.1,-0.1 31,4.2 C25.9,-0.1 18.4,-1 11.9,1.9 C4.6,5.2 0.2,12.4 0.2,21.2 C0.2,30.3 6.8,35.9 14.4,42.3 C20.1,47.1 26.5,52.6 30.6,60.3 L30.6,60.3 C30.6,60.4 30.7,60.4 30.7,60.5 L30.7,60.5 L30.7,60.5 C30.8,60.5 30.9,60.6 30.9,60.6 C30.9,60.6 31.1,60.6 31.1,60.5 L31.1,60.5 L31.1,60.5 C31.2,60.5 31.2,60.4 31.2,60.3 L31.2,60.3 C35.3,52.6 41.8,47.2 47.4,42.3 C55,35.8 61.6,30.2 61.6,21.2 C61.8,12.4 57.5,5.2 50.1,1.9 L50.1,1.9 Z M47,41.6 C41.5,46.3 35.2,51.7 31,59.1 C26.8,51.7 20.5,46.3 15,41.6 C7.6,35.3 1.2,29.8 1.2,21.2 C1.2,12.8 5.4,5.9 12.3,2.8 C18.6,-1.77635684e-15 25.8,0.9 30.7,5.2 L30.8,5.2 C30.8,5.2 30.9,5.2 30.9,5.3 L31,5.3 L31.1,5.3 L31.2,5.3 L31.3,5.3 L31.4,5.3 L31.5,5.3 C36.4,1 43.6,0.1 49.9,2.9 C56.9,6 61,12.9 61,21.3 C60.8,29.8 54.4,35.3 47,41.6 L47,41.6 Z" id="Shape"></path>
            </g>
        </g>
    </g>
</svg>