<?xml version="1.0" encoding="UTF-8" standalone="no"?>
<svg width="68px" height="68px" viewBox="0 0 68 68" version="1.1" xmlns="http://www.w3.org/2000/svg" xmlns:xlink="http://www.w3.org/1999/xlink">
    <!-- Generator: Sketch 39.1 (31720) - http://www.bohemiancoding.com/sketch -->
    <title>noun_182435_cc</title>
    <desc>Created with Sketch.</desc>
    <defs></defs>
    <g id="Page-1" stroke="none" stroke-width="1" fill="none" fill-rule="evenodd">
        <g id="noun_182435_cc" fill="#000000">
            <g id="Group">
                <path d="M28.3,40.1 C27.4,39.2 26.6,38.2 25.9,37 C25.8,36.8 25.6,36.7 25.4,36.8 C25.2,36.8 25,37 25,37.2 C24.2,40.6 23.1,43.6 21.7,46 C21.6,46.2 21.6,46.4 21.8,46.6 C21.9,46.7 22,46.7 22.2,46.7 C22.3,46.7 22.4,46.7 22.4,46.6 C24.9,45.2 27.9,44.1 31.2,43.3 C31.4,43.3 31.6,43.1 31.6,42.9 C31.6,42.7 31.5,42.5 31.4,42.4 C30.2,41.8 29.2,41 28.3,40.1 L28.3,40.1 Z M23.3,45 C24.3,43.1 25,40.9 25.7,38.5 C26.3,39.3 26.9,40.1 27.6,40.8 C28.3,41.5 29,42.1 29.9,42.7 C27.4,43.3 25.3,44.1 23.3,45 L23.3,45 Z" id="Shape"></path>
                <path d="M50.4,0.7 C43.7,0.7 36.7,3.8 31.2,9.2 C25.7,14.7 22.8,21.5 22.7,28.9 C22.6,31.8 22,41.7 16.3,47.5 L15.3,48.5 L12.5,51.3 L12.5,51.3 L8.9,54.9 L8.9,54.9 L5.3,58.5 L5.3,58.5 L2.6,61.2 L0.6,63.2 C0.5,63.3 0.5,63.4 0.5,63.6 C0.5,63.8 0.6,63.9 0.6,64 L4.3,67.7 C4.4,67.8 4.5,67.8 4.7,67.8 C4.9,67.8 5,67.8 5.1,67.7 L7.1,65.7 L19.8,53 L20.8,52 L20.8,52 C24.7,48.1 31,46 39.4,45.6 C47.5,45.3 53.4,42.7 59.1,37.1 C68.8,27.4 70.5,13.2 62.8,5.6 C59.7,2.4 55.4,0.7 50.4,0.7 L50.4,0.7 Z M15.7,49.6 L17.3,51.2 L14,51.2 L15.7,49.6 L15.7,49.6 Z M12.8,58.6 L6.8,58.6 L9.4,56 L15.4,56 L12.8,58.6 L12.8,58.6 Z M5.8,59.6 L11.8,59.6 L9.2,62.2 L4.2,62.2 L3.7,61.7 L5.8,59.6 L5.8,59.6 Z M6.6,64.7 L5.1,63.2 L8.1,63.2 L6.6,64.7 L6.6,64.7 Z M4.6,66.7 L1.6,63.7 L2.9,62.4 L3.5,63 L3.5,63 L5.9,65.4 L4.6,66.7 L4.6,66.7 Z M16.4,54.9 L10.4,54.9 L13,52.3 L18.3,52.3 L18.6,52.6 L16.4,54.9 L16.4,54.9 Z M58.3,36.4 C52.8,41.9 47.1,44.3 39.3,44.6 C30.6,44.9 24.2,47.2 20.1,51.3 C20.1,51.3 20.1,51.3 20,51.4 C19.9,51.5 19.7,51.7 19.4,52 L18.9,51.5 L18.9,51.5 L16.4,49 L17.1,48.3 C23.1,42.3 23.7,32.1 23.8,29.1 C23.9,21.9 26.8,15.3 32,10.1 C37.2,4.9 44,1.8 50.4,1.8 C55.1,1.8 59.1,3.4 62,6.3 C69.4,13.5 67.7,27 58.3,36.4 L58.3,36.4 Z" id="Shape"></path>
                <path d="M64.3,18.6 C64.3,17.3 64.2,16 64,14.8 L64,14.6 C63.6,12.9 63,11.3 62.1,9.9 C62.1,9.8 62,9.8 62,9.7 L62,9.7 C61.6,9.1 61.1,8.5 60.5,7.9 C59.9,7.3 59.3,6.8 58.7,6.4 L58.7,6.4 L58.7,6.4 C57.3,5.4 55.6,4.7 53.8,4.4 L53.8,4.4 C52.7,4.2 51.6,4.1 50.5,4.1 L49.9,4.1 C49.9,4.1 49.9,4.1 49.8,4.1 C44.2,4.3 38.4,7 33.7,11.7 C33.1,12.3 32.6,12.8 32.1,13.4 L32.1,13.4 L32.1,13.4 C31.1,14.6 30.2,15.9 29.4,17.3 L29.4,17.3 C29.3,17.4 29.3,17.4 29.3,17.5 C28.5,19 27.8,20.5 27.3,22 L27.3,22.1 C27,23 26.8,23.9 26.6,24.7 C26.6,24.8 26.5,24.9 26.6,25 C26.4,25.9 26.3,26.9 26.3,27.8 L26.3,27.9 C26.3,29.2 26.4,30.4 26.6,31.6 C26.6,31.7 26.6,31.8 26.7,31.9 C27,33.6 27.7,35.1 28.6,36.5 C28.6,36.6 28.7,36.6 28.7,36.7 L28.7,36.7 C29.1,37.3 29.6,38 30.2,38.5 C32,40.3 34.3,41.5 36.9,42 L37.1,42 L37.1,42 C37.8,42.1 38.6,42.2 39.4,42.3 L39.5,42.3 L39.6,42.3 L40.3,42.3 L40.9,42.3 L41,42.3 L41.1,42.3 C46,42.1 51.1,40 55.4,36.3 L55.4,36.3 L55.4,36.3 C56,35.8 56.6,35.3 57.1,34.7 C57.7,34.1 58.2,33.6 58.7,33 L58.7,33 L58.7,33 C59.7,31.8 60.7,30.5 61.4,29.1 C61.4,29.1 61.5,29 61.5,28.9 C62.8,26.6 63.8,24.1 64.3,21.7 C64.3,21.6 64.4,21.5 64.3,21.5 C64.4,21.2 64.4,20.9 64.5,20.7 C64.2,19.9 64.3,19.3 64.3,18.6 L64.3,18.6 L64.3,18.6 Z M62.5,23.2 L62.5,23.2 L62.5,23.1 L62.5,23.2 L62.5,23.2 Z M60.6,27.9 L59.2,26.5 L61.8,23.9 L62.2,24.3 C61.7,25.5 61.2,26.7 60.6,27.9 L60.6,27.9 Z M57.9,31.9 L55.8,29.8 L58.4,27.2 L60,28.8 C59.4,29.9 58.7,30.9 57.9,31.9 L57.9,31.9 Z M50.8,38 L49.2,36.4 L51.8,33.8 L53.9,35.9 C52.9,36.7 51.9,37.4 50.8,38 L50.8,38 Z M46.3,40.2 L45.9,39.8 L48.5,37.2 L49.9,38.6 C48.7,39.2 47.5,39.7 46.3,40.2 L46.3,40.2 Z M40.8,41.3 L39.3,39.8 L41.9,37.2 L44.5,39.8 L43.2,41 C42.4,41.1 41.6,41.2 40.8,41.3 L40.8,41.3 Z M32.9,39.5 L35.2,37.2 L37.8,39.8 L36.6,41 C35.3,40.7 34,40.2 32.9,39.5 L32.9,39.5 Z M35.9,36.4 L38.5,33.8 L41.1,36.4 L38.5,39 L35.9,36.4 L35.9,36.4 Z M27.4,31.7 L28.6,30.5 L31.2,33.1 L28.9,35.4 C28.2,34.3 27.7,33 27.4,31.7 L27.4,31.7 Z M27.1,29 L27.9,29.8 L27.2,30.5 C27.1,30 27.1,29.5 27.1,29 L27.1,29 Z M27.8,23.1 L27.8,23.1 L27.8,23.2 C27.8,23.2 27.8,23.2 27.8,23.1 L27.8,23.1 Z M29.8,18.4 L31.2,19.8 L28.6,22.4 L28.2,22 C28.6,20.8 29.1,19.6 29.8,18.4 L29.8,18.4 Z M32.5,14.5 L34.6,16.6 L32,19.2 L30.4,17.6 C30.9,16.5 31.6,15.5 32.5,14.5 L32.5,14.5 Z M39.5,8.3 L41.1,9.9 L38.5,12.5 L36.4,10.4 C37.5,9.7 38.5,8.9 39.5,8.3 L39.5,8.3 Z M44,6.2 L44.4,6.6 L41.8,9.2 L40.4,7.8 C41.6,7.1 42.8,6.6 44,6.2 L44,6.2 Z M49.6,5.1 L51.1,6.6 L48.5,9.2 L45.9,6.6 L47.1,5.4 C47.9,5.2 48.8,5.1 49.6,5.1 L49.6,5.1 Z M57.5,6.9 L55.2,9.2 L52.6,6.6 L53.8,5.4 C55.1,5.7 56.3,6.2 57.5,6.9 L57.5,6.9 Z M62.9,14.6 L61.7,15.8 L59.1,13.2 L61.4,10.9 C62.2,12 62.6,13.3 62.9,14.6 L62.9,14.6 Z M61,16.5 L58.4,19.1 L55.8,16.5 L58.4,13.9 L61,16.5 L61,16.5 Z M63.1,20.5 C63.1,20.8 63,21 63,21.3 L61.8,22.5 L59.2,19.9 L61.8,17.3 L63.3,18.8 C63.3,19.3 63.2,19.9 63.1,20.5 L63.1,20.5 Z M41.9,35.7 L39.3,33.1 L41.9,30.5 L44.5,33.1 L41.9,35.7 L41.9,35.7 Z M45.2,33.8 L47.8,36.4 L45.2,39 L42.6,36.4 L45.2,33.8 L45.2,33.8 Z M27.4,25.1 L28.6,23.9 L31.2,26.5 L28.6,29.1 L27.1,27.6 C27.1,26.8 27.2,25.9 27.4,25.1 L27.4,25.1 Z M29.3,23.2 L31.9,20.6 L34.5,23.2 L31.9,25.8 L29.3,23.2 L29.3,23.2 Z M35.2,23.9 L37.8,26.5 L35.2,29.1 L32.6,26.5 L35.2,23.9 L35.2,23.9 Z M48.5,10.6 L51.1,13.2 L48.5,15.8 L45.9,13.2 L48.5,10.6 L48.5,10.6 Z M45.2,12.5 L42.6,9.9 L45.2,7.3 L47.8,9.9 L45.2,12.5 L45.2,12.5 Z M42.6,23.2 L45.2,20.6 L47.8,23.2 L45.2,25.8 L42.6,23.2 L42.6,23.2 Z M44.5,26.5 L41.9,29.1 L39.3,26.5 L41.9,23.9 L44.5,26.5 L44.5,26.5 Z M45.9,19.9 L48.5,17.3 L51.1,19.9 L48.5,22.5 L45.9,19.9 L45.9,19.9 Z M49.2,16.5 L51.8,13.9 L54.4,16.5 L51.8,19.1 L49.2,16.5 L49.2,16.5 Z M47.8,16.5 L45.2,19.1 L42.6,16.5 L45.2,13.9 L47.8,16.5 L47.8,16.5 Z M44.5,19.9 L41.9,22.5 L39.3,19.9 L41.9,17.3 L44.5,19.9 L44.5,19.9 Z M41.1,23.2 L38.5,25.8 L35.9,23.2 L38.5,20.6 L41.1,23.2 L41.1,23.2 Z M38.5,27.2 L41.1,29.8 L38.5,32.4 L35.9,29.8 L38.5,27.2 L38.5,27.2 Z M42.6,29.8 L45.2,27.2 L47.8,29.8 L45.2,32.4 L42.6,29.8 L42.6,29.8 Z M45.9,26.5 L48.5,23.9 L51.1,26.5 L48.5,29.1 L45.9,26.5 L45.9,26.5 Z M49.2,23.2 L51.8,20.6 L54.4,23.2 L51.8,25.8 L49.2,23.2 L49.2,23.2 Z M52.5,19.9 L55.1,17.3 L57.7,19.9 L55.1,22.5 L52.5,19.9 L52.5,19.9 Z M58.4,20.6 L61,23.2 L58.4,25.8 L55.8,23.2 L58.4,20.6 L58.4,20.6 Z M55.1,15.8 L52.5,13.2 L55.1,10.6 L57.7,13.2 L55.1,15.8 L55.1,15.8 Z M51.8,12.5 L49.2,9.9 L51.8,7.3 L54.4,9.9 L51.8,12.5 L51.8,12.5 Z M51.8,5.9 L51,5.1 C51.5,5.1 52,5.2 52.5,5.2 L51.8,5.9 L51.8,5.9 Z M45.2,5.9 L45.2,5.9 C45.2,5.8 45.2,5.8 45.2,5.9 L45.2,5.9 L45.2,5.9 Z M41.9,10.6 L44.5,13.2 L41.9,15.8 L39.3,13.2 L41.9,10.6 L41.9,10.6 Z M41.2,16.5 L38.6,19.1 L36,16.5 L38.6,13.9 L41.2,16.5 L41.2,16.5 Z M37.8,19.9 L35.2,22.5 L32.6,19.9 L35.2,17.3 L37.8,19.9 L37.8,19.9 Z M29.3,29.8 L31.9,27.2 L34.5,29.8 L31.9,32.4 L29.3,29.8 L29.3,29.8 Z M35.2,30.5 L37.8,33.1 L35.2,35.7 L32.6,33.1 L35.2,30.5 L35.2,30.5 Z M45.2,40.5 L45.2,40.5 C45.2,40.5 45.1,40.5 45.2,40.5 L45.2,40.5 L45.2,40.5 Z M48.5,35.7 L45.9,33.1 L48.5,30.5 L51.1,33.1 L48.5,35.7 L48.5,35.7 Z M49.2,29.8 L51.8,27.2 L54.4,29.8 L51.8,32.4 L49.2,29.8 L49.2,29.8 Z M52.5,26.5 L55.1,23.9 L57.7,26.5 L55.1,29.1 L52.5,26.5 L52.5,26.5 Z M62.5,16.5 L63.2,15.8 C63.3,16.3 63.3,16.8 63.3,17.3 L62.5,16.5 L62.5,16.5 Z M60.9,10 L58.4,12.5 L55.8,9.9 L58.3,7.4 C58.8,7.8 59.3,8.1 59.7,8.6 C60.2,9.1 60.6,9.5 60.9,10 L60.9,10 Z M34.3,12.4 C34.7,12 35.2,11.5 35.7,11.1 L37.8,13.2 L35.2,15.8 L33.1,13.7 C33.5,13.2 33.9,12.8 34.3,12.4 L34.3,12.4 Z M29.4,36.3 L31.9,33.8 L34.5,36.4 L32,38.9 C31.5,38.5 31,38.1 30.6,37.7 C30.2,37.3 29.8,36.8 29.4,36.3 L29.4,36.3 Z M39.2,41.3 L39,41.3 C38.6,41.3 38.2,41.2 37.8,41.2 L38.5,40.5 L39.3,41.3 L39.3,41.3 C39.3,41.3 39.3,41.3 39.2,41.3 L39.2,41.3 Z M56,34 C55.6,34.4 55.1,34.9 54.6,35.3 L52.5,33.2 L55.1,30.6 L57.2,32.7 C56.8,33.1 56.4,33.6 56,34 L56,34 Z" id="Shape"></path>
            </g>
        </g>
    </g>
</svg>